<svg id="Capa_1" enable-background="new 0 0 512 512" height="512" viewBox="0 0 512 512" width="512" xmlns="http://www.w3.org/2000/svg"><g><path d="m120.037 28.462c-7.904 0-14.335 6.43-14.335 14.334v19.162c0 7.904 6.431 14.334 14.335 14.334h83.195c7.904 0 14.335-6.43 14.335-14.334v-19.162c0-7.904-6.431-14.334-14.335-14.334zm82.531 32.83h-81.865v-17.83h81.865z"/><path d="m239.546 44.877c-4.143 0-7.5 3.358-7.5 7.5s3.357 7.5 7.5 7.5h10.117c4.143 0 7.5-3.358 7.5-7.5s-3.357-7.5-7.5-7.5z"/><path d="m273.512 44.877c-4.143 0-7.5 3.358-7.5 7.5s3.357 7.5 7.5 7.5h10.117c4.143 0 7.5-3.358 7.5-7.5s-3.357-7.5-7.5-7.5z"/><path d="m422.758 229.004c5.536 0 10.871-2.326 14.639-6.381l30.095-32.398c7.083-7.625 7.083-19.571 0-27.195l-30.096-32.399c-3.768-4.055-9.103-6.381-14.638-6.381h-7.203v-19.496h7.203c5.536 0 10.871-2.326 14.639-6.381l30.095-32.398c7.083-7.625 7.083-19.571 0-27.195l-30.096-32.399c-3.768-4.055-9.103-6.381-14.638-6.381h-57.542c-4.143 0-7.5 3.358-7.5 7.5s3.357 7.5 7.5 7.5h57.542c1.38 0 2.71.58 3.648 1.59l30.095 32.399c1.766 1.899 1.766 4.876 0 6.776l-30.095 32.398c-.938 1.011-2.269 1.59-3.648 1.59h-26.001v-9.547c0-4.142-3.357-7.5-7.5-7.5s-7.5 3.358-7.5 7.5v9.547h-16.13v-9.547c0-4.142-3.357-7.5-7.5-7.5s-7.5 3.358-7.5 7.5v9.547h-16.129v-9.547c0-4.142-3.357-7.5-7.5-7.5s-7.5 3.358-7.5 7.5v9.547h-230.256c-1.379 0-2.709-.58-3.647-1.59l-30.096-32.397c-1.766-1.9-1.766-4.877 0-6.777l30.095-32.398c.939-1.011 2.27-1.591 3.648-1.591h245.988c4.143 0 7.5-3.358 7.5-7.5s-3.357-7.5-7.5-7.5h-245.988c-5.534 0-10.869 2.326-14.638 6.381l-30.095 32.399c-7.083 7.624-7.083 19.57 0 27.195l30.096 32.398c3.768 4.055 9.103 6.381 14.638 6.381h7.203v19.496h-7.203c-5.534 0-10.869 2.326-14.638 6.381l-30.096 32.399c-7.082 7.624-7.082 19.569 0 27.194l30.096 32.398c3.768 4.055 9.103 6.381 14.638 6.381h7.203v19.497h-7.203c-5.535 0-10.87 2.326-14.638 6.381l-30.096 32.399c-7.082 7.625-7.082 19.569 0 27.194l30.096 32.398c3.768 4.056 9.103 6.382 14.638 6.382h7.203v19.496h-7.203c-5.535 0-10.87 2.326-14.638 6.381l-30.096 32.399c-7.082 7.625-7.082 19.569 0 27.194l30.096 32.398c3.768 4.056 9.103 6.382 14.638 6.382h7.203v26.996c0 4.143 3.357 7.5 7.5 7.5h137.062c4.143 0 7.5-3.357 7.5-7.5s-3.357-7.5-7.5-7.5h-129.562v-19.496h289.109v19.496h-129.561c-4.143 0-7.5 3.357-7.5 7.5s3.357 7.5 7.5 7.5h137.061c4.143 0 7.5-3.357 7.5-7.5v-26.996h7.203c5.535 0 10.871-2.326 14.639-6.382l30.095-32.398c7.083-7.624 7.083-19.569 0-27.194l-30.095-32.398c-3.767-4.055-9.103-6.381-14.639-6.381h-7.203v-19.496h7.203c5.535 0 10.871-2.326 14.639-6.382l30.095-32.398c7.083-7.624 7.083-19.569 0-27.194l-30.095-32.398c-3.768-4.055-9.103-6.381-14.639-6.381h-7.203v-19.496h7.203zm-311.312-124.25h289.109v19.496h-289.109zm-25.851 107.66-30.096-32.397c-1.765-1.9-1.765-4.877 0-6.777l30.095-32.398c.939-1.011 2.27-1.591 3.648-1.591h333.516c1.38 0 2.71.58 3.648 1.59l30.095 32.399c1.766 1.899 1.766 4.876 0 6.776l-30.095 32.398c-.938 1.011-2.269 1.59-3.648 1.59h-26.001v-9.547c0-4.142-3.357-7.5-7.5-7.5s-7.5 3.358-7.5 7.5v9.547h-16.13v-9.547c0-4.142-3.357-7.5-7.5-7.5s-7.5 3.358-7.5 7.5v9.547h-16.129v-9.547c0-4.142-3.357-7.5-7.5-7.5s-7.5 3.358-7.5 7.5v9.547h-230.256c-1.378 0-2.709-.58-3.647-1.59zm340.811 176.926 30.095 32.398c1.766 1.9 1.766 4.876 0 6.776l-30.095 32.398c-.939 1.011-2.269 1.591-3.648 1.591h-26.001v-9.548c0-4.143-3.357-7.5-7.5-7.5s-7.5 3.357-7.5 7.5v9.548h-16.13v-9.548c0-4.143-3.357-7.5-7.5-7.5s-7.5 3.357-7.5 7.5v9.548h-16.129v-9.548c0-4.143-3.357-7.5-7.5-7.5s-7.5 3.357-7.5 7.5v9.548h-230.256c-1.379 0-2.709-.58-3.647-1.591l-30.096-32.398c-1.765-1.899-1.765-4.877 0-6.776l30.096-32.398c.938-1.011 2.268-1.59 3.647-1.59h333.516c1.38 0 2.71.58 3.648 1.59zm-25.851-16.59h-289.109v-19.496h289.109zm25.851-107.66 30.095 32.398c1.766 1.9 1.766 4.876 0 6.776l-30.095 32.398c-.939 1.011-2.269 1.591-3.648 1.591h-26.001v-9.548c0-4.143-3.357-7.5-7.5-7.5s-7.5 3.357-7.5 7.5v9.548h-16.13v-9.548c0-4.143-3.357-7.5-7.5-7.5s-7.5 3.357-7.5 7.5v9.548h-16.129v-9.548c0-4.143-3.357-7.5-7.5-7.5s-7.5 3.357-7.5 7.5v9.548h-230.256c-1.379 0-2.709-.58-3.647-1.591l-30.096-32.398c-1.765-1.899-1.765-4.877 0-6.776l30.096-32.398c.938-1.011 2.269-1.59 3.647-1.59h333.516c1.38 0 2.71.58 3.648 1.59zm-25.851-16.59h-289.109v-19.496h289.109z"/><path d="m120.037 200.542h83.195c7.904 0 14.335-6.43 14.335-14.334v-19.162c0-7.904-6.431-14.334-14.335-14.334h-83.195c-7.904 0-14.335 6.43-14.335 14.334v19.162c0 7.904 6.431 14.334 14.335 14.334zm.665-32.83h81.865v17.831h-81.865z"/><path d="m239.546 184.127h10.117c4.143 0 7.5-3.358 7.5-7.5s-3.357-7.5-7.5-7.5h-10.117c-4.143 0-7.5 3.358-7.5 7.5s3.358 7.5 7.5 7.5z"/><path d="m273.512 184.127h10.117c4.143 0 7.5-3.358 7.5-7.5s-3.357-7.5-7.5-7.5h-10.117c-4.143 0-7.5 3.358-7.5 7.5s3.357 7.5 7.5 7.5z"/><path d="m249.663 293.377h-10.117c-4.143 0-7.5 3.357-7.5 7.5s3.357 7.5 7.5 7.5h10.117c4.143 0 7.5-3.357 7.5-7.5s-3.357-7.5-7.5-7.5z"/><path d="m283.629 293.377h-10.117c-4.143 0-7.5 3.357-7.5 7.5s3.357 7.5 7.5 7.5h10.117c4.143 0 7.5-3.357 7.5-7.5s-3.357-7.5-7.5-7.5z"/><path d="m203.233 401.211h-83.195c-7.904 0-14.335 6.431-14.335 14.335v19.161c0 7.904 6.431 14.335 14.335 14.335h83.195c7.904 0 14.335-6.431 14.335-14.335v-19.161c0-7.904-6.431-14.335-14.335-14.335zm-.665 32.831h-81.865v-17.831h81.865z"/><path d="m249.663 417.627h-10.117c-4.143 0-7.5 3.357-7.5 7.5s3.357 7.5 7.5 7.5h10.117c4.143 0 7.5-3.357 7.5-7.5s-3.357-7.5-7.5-7.5z"/><path d="m283.629 417.627h-10.117c-4.143 0-7.5 3.357-7.5 7.5s3.357 7.5 7.5 7.5h10.117c4.143 0 7.5-3.357 7.5-7.5s-3.357-7.5-7.5-7.5z"/><path d="m203.233 276.961h-41.598c-4.143 0-7.5 3.357-7.5 7.5s3.357 7.5 7.5 7.5h40.933v17.831h-81.865v-17.831h10.945c4.143 0 7.5-3.357 7.5-7.5s-3.357-7.5-7.5-7.5h-11.61c-7.904 0-14.335 6.431-14.335 14.335v19.161c0 7.904 6.431 14.335 14.335 14.335h83.195c7.904 0 14.335-6.431 14.335-14.335v-19.161c0-7.904-6.431-14.335-14.335-14.335z"/></g></svg>