<svg id="Capa_1" enable-background="new 0 0 512 512" height="512" viewBox="0 0 512 512" width="512" xmlns="http://www.w3.org/2000/svg"><g><path d="m471 407c0-24.813-20.187-45-45-45h-75v-108.361l33.181 33.18c17.545 17.546 46.094 17.545 63.639 0 8.498-8.499 13.18-19.799 13.18-31.819s-4.682-23.32-13.181-31.819l-82.426-82.427c-14.84-14.841-33.341-24.69-53.467-28.709 8.83-11.716 14.074-26.278 14.074-42.045 0-38.598-31.401-70-70-70-38.598 0-70 31.402-70 70 0 15.767 5.244 30.329 14.073 42.045-20.125 4.019-38.627 13.868-53.467 28.709l-82.426 82.427c-8.499 8.499-13.18 19.799-13.18 31.819s4.681 23.321 13.18 31.819c8.5 8.5 19.8 13.18 31.82 13.18s23.32-4.681 31.819-13.18l33.181-33.18v108.361h-75c-24.813 0-45 20.187-45 45 0 24.009 18.9 43.684 42.602 44.935-1.679 4.713-2.602 9.782-2.602 15.065 0 24.813 20.187 45 45 45s45-20.187 45-45c0-5.258-.915-10.305-2.58-15h45.161c-1.665 4.695-2.58 9.742-2.58 15 0 24.813 20.187 45 45 45s45-20.187 45-45c0-5.258-.915-10.305-2.58-15h45.16c-1.665 4.695-2.58 9.742-2.58 15 0 24.813 20.187 45 45 45s45-20.187 45-45c0-5.283-.923-10.352-2.602-15.065 23.702-1.251 42.601-20.926 42.601-44.935zm-215-377c22.056 0 40 17.944 40 40s-17.944 40-40 40-40-17.944-40-40 17.944-40 40-40zm-74.26 173.568c-5.606-2.322-12.058-1.038-16.347 3.252l-58.788 58.787c-2.832 2.832-6.599 4.393-10.605 4.393s-7.773-1.56-10.606-4.394c-2.833-2.833-4.394-6.6-4.394-10.606 0-4.007 1.561-7.773 4.393-10.606l82.426-82.427c14.166-14.166 33-21.967 53.033-21.967h70.295c20.034 0 38.868 7.801 53.033 21.967l82.426 82.427c2.833 2.833 4.394 6.6 4.394 10.606s-1.561 7.773-4.394 10.606c-5.85 5.848-15.365 5.848-21.213 0l-58.787-58.787c-4.29-4.291-10.742-5.572-16.347-3.252-5.605 2.322-9.26 7.792-9.26 13.858v144.575h-129.999v-144.574c0-6.067-3.655-11.536-9.26-13.858zm-40.74 263.432c0 8.271-6.729 15-15 15s-15-6.729-15-15 6.729-15 15-15 15 6.729 15 15zm130 0c0 8.271-6.729 15-15 15s-15-6.729-15-15 6.729-15 15-15 15 6.729 15 15zm115 15c-8.271 0-15-6.729-15-15s6.729-15 15-15 15 6.729 15 15-6.729 15-15 15zm40-60h-340c-8.271 0-15-6.729-15-15s6.729-15 15-15h340c8.271 0 15 6.729 15 15s-6.729 15-15 15z"/></g></svg>