<svg id="Capa_1" enable-background="new 0 0 512 512" height="512" viewBox="0 0 512 512" width="512" xmlns="http://www.w3.org/2000/svg"><g><path d="m143.804 172.462c-6.052 0-10.976 4.924-10.976 10.976v30.493c0 6.052 4.924 10.976 10.976 10.976h32.055c6.053 0 10.977-4.924 10.977-10.976v-30.493c0-6.052-4.924-10.976-10.977-10.976zm28.031 37.444h-24.007v-22.444h24.007z"/><path d="m218.819 179.346h-12.591c-4.143 0-7.5 3.357-7.5 7.5s3.357 7.5 7.5 7.5h12.591c4.143 0 7.5-3.357 7.5-7.5s-3.358-7.5-7.5-7.5z"/><path d="m218.819 203.022h-12.591c-4.143 0-7.5 3.357-7.5 7.5s3.357 7.5 7.5 7.5h12.591c4.143 0 7.5-3.357 7.5-7.5s-3.358-7.5-7.5-7.5z"/><path d="m270.378 194.346h101.293c4.143 0 7.5-3.357 7.5-7.5s-3.357-7.5-7.5-7.5h-101.293c-4.143 0-7.5 3.357-7.5 7.5s3.358 7.5 7.5 7.5z"/><path d="m270.378 218.022h101.293c4.143 0 7.5-3.357 7.5-7.5s-3.357-7.5-7.5-7.5h-101.293c-4.143 0-7.5 3.357-7.5 7.5s3.358 7.5 7.5 7.5z"/><path d="m105.354 351.082c0 6.677 5.433 12.109 12.11 12.109h277.071c6.678 0 12.11-5.433 12.11-12.109v-75.851c0-6.678-5.433-12.11-12.11-12.11h-277.071c-6.678 0-12.11 5.433-12.11 12.11zm15-72.961h271.292v70.07h-271.292z"/><path d="m175.859 286.934h-32.055c-6.052 0-10.976 4.924-10.976 10.977v30.493c0 6.052 4.924 10.976 10.976 10.976h32.055c6.053 0 10.977-4.924 10.977-10.976v-30.494c-.001-6.053-4.924-10.976-10.977-10.976zm-4.024 37.445h-24.007v-22.445h24.007z"/><path d="m218.819 293.817h-12.591c-4.143 0-7.5 3.357-7.5 7.5s3.357 7.5 7.5 7.5h12.591c4.143 0 7.5-3.357 7.5-7.5s-3.358-7.5-7.5-7.5z"/><path d="m218.819 317.495h-12.591c-4.143 0-7.5 3.357-7.5 7.5s3.357 7.5 7.5 7.5h12.591c4.143 0 7.5-3.357 7.5-7.5s-3.358-7.5-7.5-7.5z"/><path d="m371.671 293.817h-101.293c-4.143 0-7.5 3.357-7.5 7.5s3.357 7.5 7.5 7.5h101.293c4.143 0 7.5-3.357 7.5-7.5s-3.357-7.5-7.5-7.5z"/><path d="m371.671 317.495h-101.293c-4.143 0-7.5 3.357-7.5 7.5s3.357 7.5 7.5 7.5h101.293c4.143 0 7.5-3.357 7.5-7.5s-3.357-7.5-7.5-7.5z"/><path d="m105.354 465.554c0 6.678 5.433 12.11 12.11 12.11h277.071c6.678 0 12.11-5.433 12.11-12.11v-75.851c0-6.677-5.433-12.109-12.11-12.109h-277.071c-6.678 0-12.11 5.433-12.11 12.109zm15-72.96h271.292v70.07h-271.292z"/><path d="m175.859 401.406h-32.055c-6.052 0-10.976 4.924-10.976 10.976v30.493c0 6.053 4.924 10.977 10.976 10.977h32.055c6.053 0 10.977-4.924 10.977-10.977v-30.493c-.001-6.052-4.924-10.976-10.977-10.976zm-4.024 37.446h-24.007v-22.445h24.007z"/><path d="m218.819 408.29h-12.591c-4.143 0-7.5 3.357-7.5 7.5s3.357 7.5 7.5 7.5h12.591c4.143 0 7.5-3.357 7.5-7.5s-3.358-7.5-7.5-7.5z"/><path d="m218.819 431.967h-12.591c-4.143 0-7.5 3.357-7.5 7.5s3.357 7.5 7.5 7.5h12.591c4.143 0 7.5-3.357 7.5-7.5s-3.358-7.5-7.5-7.5z"/><path d="m371.671 408.29h-101.293c-4.143 0-7.5 3.357-7.5 7.5s3.357 7.5 7.5 7.5h101.293c4.143 0 7.5-3.357 7.5-7.5s-3.357-7.5-7.5-7.5z"/><path d="m371.671 431.967h-101.293c-4.143 0-7.5 3.357-7.5 7.5s3.357 7.5 7.5 7.5h101.293c4.143 0 7.5-3.357 7.5-7.5s-3.357-7.5-7.5-7.5z"/><path d="m365.946 69.807c0-4.143-3.357-7.5-7.5-7.5h-204.892c-4.143 0-7.5 3.357-7.5 7.5s3.357 7.5 7.5 7.5h204.892c4.142 0 7.5-3.358 7.5-7.5z"/><path d="m349.003 97.681c0-4.143-3.357-7.5-7.5-7.5h-171.007c-4.143 0-7.5 3.357-7.5 7.5s3.357 7.5 7.5 7.5h171.008c4.142 0 7.499-3.358 7.499-7.5z"/><path d="m202.842 118.056c-4.143 0-7.5 3.357-7.5 7.5s3.357 7.5 7.5 7.5h106.314c4.143 0 7.5-3.357 7.5-7.5s-3.357-7.5-7.5-7.5z"/><path d="m422.117 32.094h-27.857l-8.465-18.482c-3.787-8.269-12.11-13.612-21.204-13.612h-17.684c-4.143 0-7.5 3.357-7.5 7.5s3.357 7.5 7.5 7.5h17.684c3.244 0 6.214 1.906 7.564 4.856l5.605 12.237h-91.694l5.604-12.237c1.352-2.95 4.321-4.856 7.566-4.856h17.684c4.143 0 7.5-3.357 7.5-7.5s-3.357-7.5-7.5-7.5h-17.684c-9.094 0-17.416 5.342-21.204 13.61l-8.464 18.483h-179.685c-9.959 0-18.062 8.103-18.062 18.062v390.87c0 4.143 3.357 7.5 7.5 7.5s7.5-3.357 7.5-7.5v-390.87c0-1.688 1.373-3.062 3.062-3.062h332.233c1.688 0 3.062 1.373 3.062 3.062v443.783c0 1.688-1.373 3.062-3.062 3.062h-332.233c-1.688 0-3.062-1.373-3.062-3.062v-22.926c0-4.143-3.357-7.5-7.5-7.5s-7.5 3.357-7.5 7.5v22.926c0 9.959 8.103 18.062 18.062 18.062h332.233c9.959 0 18.062-8.103 18.062-18.062v-443.783c0-9.959-8.102-18.061-18.061-18.061z"/><path d="m105.354 160.759v75.851c0 6.678 5.433 12.11 12.11 12.11h108.549c4.143 0 7.5-3.357 7.5-7.5s-3.357-7.5-7.5-7.5h-105.659v-70.07h271.292v70.07h-135.646c-4.143 0-7.5 3.357-7.5 7.5s3.357 7.5 7.5 7.5h138.536c6.678 0 12.11-5.433 12.11-12.11v-75.851c0-6.677-5.433-12.109-12.11-12.109h-277.072c-6.677-.001-12.11 5.432-12.11 12.109z"/></g></svg>